<?xml version="1.0" encoding="utf-8"?>
<!-- Generator: Adobe Illustrator 22.1.0, SVG Export Plug-In . SVG Version: 6.00 Build 0)  -->
<svg version="1.1" id="Layer_1" xmlns="http://www.w3.org/2000/svg" xmlns:xlink="http://www.w3.org/1999/xlink" x="0px" y="0px"
	 viewBox="0 0 595.3 377" style="enable-background:new 0 0 595.3 377;" xml:space="preserve">
<style type="text/css">
	.st0{fill:#010202;}
	.st1{fill:#088ECE;}
</style>
<g>
	<g>
		<path class="st0" d="M290.8,230.1c2.9-1.2,5.5-3,7.9-5.2c2.4-2.2,4.3-4.8,5.9-7.7c1.6-2.9,2.6-6,3.1-9.4c0.5-3.3,0.3-6.4-0.5-9.3
			c-0.8-2.9-2.1-5.5-3.8-7.7c-1.7-2.2-3.8-3.9-6.4-5.2c-2.5-1.2-5.2-1.9-8.1-1.9c-2.8,0-5.7,0.6-8.5,1.9c-2.8,1.2-5.4,3-7.8,5.2
			c-2.4,2.2-4.4,4.7-6,7.7c-1.7,2.9-2.7,6-3.2,9.3c-0.5,3.3-0.3,6.4,0.5,9.4c0.8,2.9,2.1,5.5,3.9,7.7c1.8,2.2,3.9,3.9,6.4,5.2
			c2.5,1.2,5.1,1.9,8,1.9C285,231.9,287.9,231.3,290.8,230.1 M261.5,250.5c-5.4-2.5-9.9-5.8-13.6-10.1c-3.7-4.2-6.4-9.1-8.1-14.7
			c-1.7-5.6-2.2-11.5-1.3-17.8c0.8-6.2,2.9-12.1,6.2-17.7c3.3-5.6,7.4-10.6,12.2-14.8c4.8-4.2,10.3-7.6,16.4-10.1
			c6.1-2.5,12.3-3.7,18.7-3.7c6.4,0,12.3,1.2,17.6,3.7c5.4,2.5,9.9,5.8,13.6,10.1c3.7,4.2,6.3,9.1,8,14.8c1.7,5.6,2.1,11.5,1.2,17.7
			c-0.8,6.3-2.9,12.2-6.1,17.8c-3.3,5.6-7.3,10.5-12.1,14.7c-4.8,4.2-10.3,7.6-16.4,10.1c-6.1,2.5-12.3,3.7-18.7,3.7
			S266.9,253,261.5,250.5"/>
	</g>
	<polygon class="st0" points="348.1,148.2 351.3,126 387.7,126 370.3,250.6 345.4,250.6 359.6,148.2 	"/>
	<g>
		<path class="st0" d="M443.5,230.1c2.9-1.2,5.5-3,7.9-5.2c2.4-2.2,4.3-4.8,5.9-7.7c1.6-2.9,2.6-6,3.1-9.4c0.5-3.3,0.3-6.4-0.5-9.3
			c-0.8-2.9-2.1-5.5-3.8-7.7c-1.7-2.2-3.8-3.9-6.4-5.2c-2.5-1.2-5.2-1.9-8.1-1.9c-2.8,0-5.7,0.6-8.5,1.9c-2.8,1.2-5.4,3-7.8,5.2
			c-2.4,2.2-4.4,4.7-6,7.7c-1.7,2.9-2.7,6-3.2,9.3c-0.5,3.3-0.3,6.4,0.5,9.4c0.8,2.9,2.1,5.5,3.9,7.7c1.8,2.2,3.9,3.9,6.4,5.2
			c2.5,1.2,5.1,1.9,8,1.9C437.7,231.9,440.6,231.3,443.5,230.1 M414.2,250.5c-5.4-2.5-9.9-5.8-13.6-10.1c-3.7-4.2-6.4-9.1-8.1-14.7
			c-1.7-5.6-2.2-11.5-1.3-17.8c0.8-6.2,2.9-12.1,6.2-17.7c3.3-5.6,7.4-10.6,12.2-14.8c4.8-4.2,10.3-7.6,16.4-10.1
			c6.1-2.5,12.3-3.7,18.7-3.7c6.4,0,12.3,1.2,17.6,3.7c5.4,2.5,9.9,5.8,13.6,10.1c3.7,4.2,6.3,9.1,8,14.8c1.7,5.6,2.1,11.5,1.2,17.7
			c-0.8,6.3-2.9,12.2-6.1,17.8c-3.3,5.6-7.3,10.5-12.1,14.7s-10.3,7.6-16.4,10.1c-6.1,2.5-12.3,3.7-18.7,3.7
			C425.5,254.2,419.6,253,414.2,250.5"/>
	</g>
	<polygon class="st1" points="206.1,196.3 187.6,214.4 204.8,250.6 232,250.6 	"/>
	<polygon class="st0" points="120,250.6 147.6,250.7 126.1,206 	"/>
	<polyline class="st1" points="146.3,192.3 215,126 248.7,126 156.7,214.9 	"/>
	<polygon class="st0" points="129.3,180.9 187,125.2 138.6,125.4 	"/>
</g>
</svg>
